<svg
  width="200"
  height="200"
  viewBox="0 0 200 200"
  fill="none"
  xmlns="http://www.w3.org/2000/svg"
>
  <!-- Background Circle -->
  <circle cx="100" cy="100" r="95" fill="url(#gradient-bg)" />

  <!-- Java Coffee Cup -->
  <path
    d="M70 140c10 10 50 10 60 0M85 125c5 5 30 5 35 0M95 110c4 4 20 4 25 0"
    stroke="white"
    stroke-width="3"
    stroke-linecap="round"
  />
  <path
    d="M95 95c5 5 15 5 20 0M105 80c3 3 8 3 10 0"
    stroke="white"
    stroke-width="2"
    stroke-linecap="round"
  />
  <path
    d="M90 145c5 5 30 5 35 0M80 150c10 10 50 10 60 0"
    stroke="white"
    stroke-width="4"
    stroke-linecap="round"
  />

  <!-- Code Brackets -->
  <path
    d="M50 80 L70 100 L50 120"
    stroke="white"
    stroke-width="5"
    stroke-linecap="round"
  />
  <path
    d="M150 80 L130 100 L150 120"
    stroke="white"
    stroke-width="5"
    stroke-linecap="round"
  />

  <!-- J Letter -->
  <path
    d="M110 40 Q90 30 90 50 T110 70"
    stroke="white"
    stroke-width="5"
    stroke-linecap="round"
    fill="none"
  />

  <!-- Java Flame -->
  <path
    d="M100 40 C110 20 130 30 120 50 C110 70 90 60 100 40"
    fill="white"
    opacity="0.8"
  />

  <!-- Gradient Definition -->
  <defs>
    <radialGradient id="gradient-bg" cx="0.5" cy="0.5" r="0.7">
      <stop offset="0%" stop-color="#FF6F00" />
      <stop offset="100%" stop-color="#FF3D00" />
    </radialGradient>
  </defs>
</svg>